<svg xmlns="http://www.w3.org/2000/svg" width="55" height="122.503" viewBox="0 0 55 122.503"><g transform="translate(-287.5 -275.749)"><g transform="translate(-244.5 -5)"><g transform="translate(532 301)" fill="none" stroke="#fff" stroke-width="6"><rect width="55" height="82" rx="27.5" stroke="none"/><rect x="3" y="3" width="49" height="76" rx="24.5" fill="none"/></g><rect width="8" height="20" rx="4" transform="translate(555 317)" fill="#fff"/></g><g transform="translate(-261.5 -15)"><path d="M18,20.679l8.93-8.937a1.681,1.681,0,0,1,2.384,0,1.7,1.7,0,0,1,0,2.391L19.2,24.258a1.685,1.685,0,0,1-2.327.049L6.68,14.14a1.688,1.688,0,0,1,2.384-2.391Z" transform="translate(558.504 388.502)" fill="#fff"/></g><g transform="translate(891.5 689) rotate(180)"><path d="M18,20.679l8.93-8.937a1.681,1.681,0,0,1,2.384,0,1.7,1.7,0,0,1,0,2.391L19.2,24.258a1.685,1.685,0,0,1-2.327.049L6.68,14.14a1.688,1.688,0,0,1,2.384-2.391Z" transform="translate(558.504 388.502)" fill="#fff"/></g></g></svg>